<svg width="428" height="112" viewBox="0 0 428 112" fill="none" xmlns="http://www.w3.org/2000/svg">
<g clip-path="url(#clip0_60_6)">
<g filter="url(#filter0_d_60_6)">
<path d="M49.929 25.0102C49.649 25.0131 49.3496 25.0761 49.0309 25.1994C48.7121 25.3227 48.5538 25.4843 48.5558 25.6843L48.9806 67.0821C48.9827 67.2821 49.1243 67.4407 49.4055 67.5578C49.7267 67.6745 50.0273 67.7314 50.3073 67.7286L50.319 68.8685L39.7596 68.9769L39.7479 67.8369C40.7078 67.8271 41.0051 67.564 40.6398 67.0477L19.0393 37.8678L19.3422 67.3863C19.3442 67.5862 19.5059 67.7446 19.8271 67.8613C20.1483 67.978 20.4689 68.0347 20.7889 68.0315L20.8006 69.1714L9.82115 69.284L9.80945 68.1441C10.1294 68.1408 10.4488 68.0775 10.7676 67.9543C11.0863 67.831 11.2447 67.6694 11.2426 67.4694L10.8178 26.0715C10.8158 25.8716 10.6541 25.7132 10.3329 25.5965C10.0517 25.4794 9.77111 25.4223 9.49113 25.4251L9.47943 24.2852L20.3389 24.1738L20.3506 25.3137C19.3906 25.3235 19.0933 25.5866 19.4586 26.1029L41.669 56.2366L40.5763 25.7662C40.5742 25.5662 40.3926 25.4081 40.0314 25.2918C39.7102 25.1751 39.4096 25.1181 39.1296 25.121L39.1179 23.9811L49.9173 23.8703L49.929 25.0102ZM61.8855 36.1081C60.6056 36.1212 59.5011 35.6925 58.5722 34.822C57.6832 33.9511 57.2319 32.8557 57.2184 31.5357C57.2056 30.2958 57.6347 29.2314 58.5057 28.3424C59.4162 27.413 60.5114 26.9417 61.7913 26.9286C63.0713 26.9155 64.1559 27.3644 65.0453 28.2753C65.9343 29.1462 66.3852 30.2016 66.3979 31.4416C66.4114 32.7615 65.9827 33.8659 65.1118 34.7549C64.2409 35.6439 63.1655 36.095 61.8855 36.1081ZM58.0559 42.9878C58.0539 42.7878 57.8922 42.6294 57.571 42.5127C57.2898 42.3956 57.0092 42.3385 56.7292 42.3413L56.7175 41.2014L67.037 41.0955L67.0487 42.2355C66.7687 42.2383 66.4693 42.3014 66.1506 42.4247C65.8718 42.5475 65.7335 42.709 65.7355 42.909L65.9818 66.9077C65.9838 67.1077 66.1254 67.2662 66.4067 67.3834C66.7279 67.5001 67.0285 67.557 67.3085 67.5541L67.3202 68.6941L57.0007 68.7999L56.989 67.66C57.269 67.6571 57.5484 67.5943 57.8271 67.4714C58.1459 67.3481 58.3042 67.1865 58.3022 66.9865L58.0559 42.9878ZM100.603 66.9125C100.765 67.1108 101.246 67.2059 102.046 67.1977L102.058 68.3376L91.0784 68.4503L91.0667 67.3103C91.5467 67.3054 91.7857 67.203 91.7836 67.003C91.7828 66.923 91.7012 66.7638 91.5387 66.5255L85.7584 58.7244L82.5573 62.5374L82.6004 66.7372C82.6025 66.9372 82.7441 67.0957 83.0253 67.2128C83.3465 67.3296 83.6471 67.3865 83.9271 67.3836L83.9388 68.5235L73.6794 68.6288L73.6677 67.4889C73.9476 67.486 74.227 67.4231 74.5058 67.3003C74.8245 67.177 74.9829 67.0154 74.9808 66.8154L74.556 25.4175C74.554 25.2176 74.3924 25.0592 74.0711 24.9425C73.7899 24.8254 73.5093 24.7682 73.2293 24.7711L73.2176 23.6312L83.4771 23.5259L83.4888 24.6658C83.2088 24.6687 82.9094 24.7318 82.5907 24.8551C82.3119 24.9779 82.1736 25.1394 82.1756 25.3394L82.4477 51.858L90.2738 42.6572L90.3913 42.416C90.3884 42.136 90.027 41.9997 89.307 42.0071L89.2953 40.8671L101.295 40.744L101.306 41.8839L100.766 41.8895C100.246 41.8948 99.9073 41.9783 99.7489 42.1399L90.2046 53.4585L100.603 66.9125ZM138.443 41.5029C138.163 41.5058 137.863 41.5688 137.544 41.6921C137.266 41.815 137.127 41.9764 137.129 42.1764L137.376 66.1751C137.378 66.3751 137.519 66.5337 137.801 66.6508C138.122 66.7675 138.422 66.8244 138.702 66.8216L138.714 67.9615L129.835 68.0526L129.801 64.7528C127.309 67.4985 124.143 68.8911 120.303 68.9305C117.383 68.9604 114.797 68.4069 112.546 67.27C110.333 66.0926 108.596 64.4103 107.334 62.2232C106.111 60.0356 105.485 57.4819 105.455 54.562C105.426 51.7222 106.06 49.1956 107.357 46.9821C108.694 44.7283 110.476 42.9899 112.704 41.767C114.931 40.5041 117.365 39.8591 120.004 39.832C123.844 39.7926 127.039 41.2399 129.59 44.1739L129.551 40.4541L138.431 40.363L138.443 41.5029ZM121.138 62.5616C122.778 62.5447 124.234 62.1698 125.506 61.4367C126.819 60.6632 127.828 59.6728 128.536 58.4654C129.243 57.2181 129.59 55.8945 129.575 54.4946C129.551 52.0947 128.731 50.123 127.115 48.5795C125.539 47.0356 123.491 46.2766 120.971 46.3024C118.531 46.3274 116.519 47.1081 114.935 48.6445C113.39 50.1804 112.63 52.1283 112.654 54.4882C112.68 56.968 113.5 58.9397 115.115 60.4032C116.77 61.8663 118.778 62.5858 121.138 62.5616ZM175.629 41.1213C174.829 41.1295 174.331 41.2947 174.134 41.6167L163.514 65.0069C163.397 65.2881 163.339 65.5287 163.341 65.7287C163.344 66.0487 163.467 66.2674 163.708 66.385C163.989 66.5021 164.27 66.5592 164.55 66.5563L164.561 67.6963L152.442 67.8206L152.43 66.6807C152.71 66.6778 152.99 66.615 153.268 66.4921C153.547 66.3292 153.684 66.0678 153.68 65.7078C153.678 65.5078 153.616 65.2885 153.494 65.0497L143.237 41.9937C143.113 41.635 142.631 41.4599 141.791 41.4685L141.779 40.3286L152.219 40.2215L152.231 41.3614C151.751 41.3663 151.432 41.4896 151.274 41.7312C151.156 41.9325 151.159 42.1725 151.282 42.4512L158.838 59.5946L166.46 42.2355C166.5 42.1951 166.519 42.1349 166.518 42.0549C166.516 41.8549 166.355 41.6765 166.033 41.5198C165.751 41.3227 165.39 41.2264 164.95 41.2309L164.938 40.091L175.618 39.9814L175.629 41.1213ZM184.985 34.845C183.705 34.8581 182.6 34.4295 181.671 33.5589C180.782 32.688 180.331 31.5926 180.317 30.2727C180.305 29.0327 180.734 27.9683 181.605 27.0793C182.515 26.1499 183.61 25.6786 184.89 25.6655C186.17 25.6524 187.255 26.1013 188.144 27.0122C189.033 27.8831 189.484 28.9385 189.497 30.1785C189.51 31.4984 189.082 32.6029 188.211 33.4918C187.34 34.3808 186.264 34.8319 184.985 34.845ZM181.155 41.7247C181.153 41.5247 180.991 41.3663 180.67 41.2496C180.389 41.1325 180.108 41.0754 179.828 41.0782L179.817 39.9383L190.136 39.8324L190.148 40.9724C189.868 40.9752 189.568 41.0383 189.25 41.1616C188.971 41.2844 188.832 41.4459 188.834 41.6459L189.081 65.6446C189.083 65.8446 189.224 66.0031 189.506 66.1203C189.827 66.237 190.127 66.2939 190.407 66.291L190.419 67.431L180.1 67.5369L180.088 66.3969C180.368 66.394 180.647 66.3312 180.926 66.2083C181.245 66.085 181.403 65.9234 181.401 65.7234L181.155 41.7247ZM249.838 20.6188L249.933 29.8584L248.793 29.8701C248.79 29.6301 248.728 29.3707 248.605 29.0919C248.482 28.8132 248.32 28.6748 248.12 28.6769L234.741 28.8142L235.114 65.1723C235.116 65.3723 235.278 65.5306 235.599 65.6473C235.92 65.764 236.241 65.8207 236.561 65.8175L236.573 66.9574L225.533 67.0707L225.522 65.9307C225.842 65.9274 226.161 65.8642 226.48 65.7409C226.798 65.6176 226.957 65.456 226.955 65.256L226.582 28.8979L213.142 29.0358C212.942 29.0378 212.784 29.1795 212.667 29.4607C212.55 29.7419 212.492 30.0025 212.495 30.2425L211.355 30.2542L211.26 21.0147L212.4 21.003C212.402 21.243 212.465 21.5023 212.588 21.7811C212.711 22.0599 212.872 22.1982 213.072 22.1962L248.05 21.8373C248.25 21.8352 248.409 21.6936 248.526 21.4124C248.643 21.1311 248.7 20.8705 248.698 20.6305L249.838 20.6188ZM272.14 37.1909L272.239 46.8504L271.099 46.8621C271.097 46.5821 271.033 46.2627 270.91 45.904C270.786 45.5452 270.624 45.3469 270.423 45.3089L270.003 45.3132C268.763 45.326 267.507 45.6989 266.235 46.432C265.002 47.1247 263.971 48.0553 263.143 49.2238C262.355 50.352 261.967 51.556 261.98 52.836L262.104 64.8953C262.106 65.0953 262.248 65.2539 262.529 65.371C262.85 65.4877 263.151 65.5446 263.431 65.5417L263.442 66.6817L253.363 66.7851L253.351 65.6452C253.631 65.6423 253.911 65.5794 254.189 65.4566C254.508 65.3333 254.666 65.1717 254.664 64.9717L254.418 40.9729C254.416 40.7729 254.254 40.6146 253.933 40.4979C253.652 40.3808 253.371 40.3236 253.091 40.3265L253.08 39.1866L261.839 39.0967L261.866 41.6765C262.935 40.6655 264.227 39.8522 265.741 39.2367C267.255 38.6211 268.771 38.3055 270.291 38.2899L270.351 38.2893L270.411 38.2887C270.611 38.2866 270.75 38.1652 270.828 37.9244C270.945 37.6832 271.003 37.4426 271 37.2026L272.14 37.1909ZM290.457 67.1245C287.497 67.1549 284.871 66.5618 282.578 65.3453C280.325 64.0883 278.547 62.3665 277.245 60.1797C275.982 57.9926 275.337 55.5191 275.309 52.7592C275.281 50.0393 275.875 47.5531 277.092 45.3005C278.349 43.0475 280.111 41.2693 282.378 39.966C284.644 38.6227 287.237 37.936 290.157 37.9061C292.957 37.8773 295.503 38.4913 297.796 39.7478C300.089 40.9643 301.907 42.6858 303.25 44.9121C304.592 47.0985 305.278 49.6115 305.307 52.4514C305.332 54.9313 304.757 57.2973 303.58 59.5495C302.442 61.7613 300.741 63.5788 298.475 65.0022C296.209 66.3855 293.537 67.0929 290.457 67.1245ZM290.386 60.2249C292.746 60.2007 294.639 59.5012 296.065 58.1265C297.53 56.7114 298.252 54.9039 298.229 52.704C298.206 50.4242 297.447 48.5518 295.951 47.0871C294.496 45.622 292.589 44.9015 290.229 44.9257C288.029 44.9483 286.197 45.7071 284.732 47.2022C283.267 48.6573 282.546 50.4848 282.568 52.6847C282.592 55.0046 283.351 56.8569 284.845 58.2416C286.339 59.5864 288.186 60.2475 290.386 60.2249ZM340.067 64.0954C340.069 64.2954 340.211 64.4539 340.492 64.571C340.813 64.6877 341.134 64.7445 341.454 64.7412L341.465 65.8811L330.906 65.9895L330.894 64.8495C331.214 64.8462 331.514 64.7832 331.792 64.6603C332.111 64.537 332.269 64.3754 332.267 64.1754L332.139 51.6961C332.118 49.6562 331.601 47.9214 330.586 46.4917C329.571 45.0221 328.063 44.2975 326.063 44.318C324.023 44.3389 322.371 45.0359 321.105 46.409C319.879 47.7816 319.279 49.7479 319.305 52.3078L319.428 64.3071C319.43 64.5071 319.572 64.6657 319.853 64.7828C320.174 64.8995 320.495 64.9562 320.815 64.9529L320.827 66.0929L310.327 66.2006L310.315 65.0607C310.635 65.0574 310.935 64.9943 311.213 64.8714C311.532 64.7482 311.691 64.5865 311.689 64.3865L311.442 40.3878C311.44 40.1878 311.279 40.0295 310.957 39.9128C310.676 39.7956 310.396 39.7385 310.116 39.7414L310.104 38.6015L319.163 38.5085L319.189 40.9684C320.219 39.9977 321.431 39.2453 322.826 38.7109C324.26 38.1362 325.717 37.8412 327.197 37.826C329.757 37.7998 331.982 38.317 333.873 39.3776C335.804 40.4379 337.279 41.8828 338.298 43.7124C339.356 45.5017 339.897 47.5162 339.92 49.7561L340.067 64.0954ZM352.73 33.1238C351.45 33.1369 350.345 32.7083 349.416 31.8377C348.527 30.9668 348.076 29.8714 348.062 28.5515C348.05 27.3115 348.479 26.2471 349.35 25.3581C350.26 24.4287 351.355 23.9574 352.635 23.9443C353.915 23.9312 355 24.3801 355.889 25.291C356.778 26.1619 357.229 27.2173 357.242 28.4573C357.255 29.7772 356.827 30.8817 355.956 31.7706C355.085 32.6596 354.01 33.1107 352.73 33.1238ZM348.9 40.0035C348.898 39.8035 348.736 39.6451 348.415 39.5284C348.134 39.4113 347.853 39.3542 347.573 39.357L347.562 38.2171L357.881 38.1112L357.893 39.2512C357.613 39.254 357.313 39.3171 356.995 39.4404C356.716 39.5632 356.578 39.7247 356.58 39.9247L356.826 63.9234C356.828 64.1234 356.97 64.2819 357.251 64.3991C357.572 64.5158 357.873 64.5727 358.153 64.5698L358.164 65.7098L347.845 65.8157L347.833 64.6757C348.113 64.6728 348.392 64.61 348.671 64.4871C348.99 64.3638 349.148 64.2022 349.146 64.0022L348.9 40.0035ZM378.216 66.7641C375.656 66.7904 373.269 66.1748 371.056 64.9174C368.843 63.6601 367.066 61.9382 365.723 59.7519C364.421 57.5651 363.756 55.1718 363.729 52.572C363.698 49.4921 364.31 46.7857 365.566 44.4527C366.862 42.0793 368.603 40.2613 370.79 38.9988C372.977 37.6963 375.39 37.0315 378.03 37.0044C379.91 36.9851 381.512 37.1887 382.837 37.6151C384.201 38.0412 385.287 38.5701 386.093 39.2018C386.939 39.7932 387.988 40.6424 389.24 41.7497C389.32 41.8288 389.421 41.8678 389.541 41.8666C389.701 41.8649 389.88 41.8031 390.079 41.681C390.318 41.5586 390.496 41.4367 390.615 41.3155L391.404 42.1475L384.986 48.2137L384.197 47.3817C384.395 47.2197 384.553 46.998 384.67 46.7168C384.827 46.3952 384.845 46.155 384.723 45.9962C383.265 44.2511 381.276 43.3915 378.756 43.4173C376.476 43.4407 374.564 44.2204 373.02 45.7563C371.515 47.2918 370.776 49.2795 370.801 51.7194C370.827 54.2392 371.587 56.2515 373.083 57.7563C374.578 59.261 376.526 60.0011 378.926 59.9764C380.126 59.9641 381.104 59.8141 381.862 59.5263C382.618 59.1985 383.472 58.6097 384.424 57.7599C384.503 57.6791 384.542 57.5787 384.54 57.4587C384.538 57.2187 384.395 56.9602 384.113 56.6831L384.823 55.7757L391.358 61.1089L390.647 61.9563C390.003 61.6029 389.563 61.5474 389.325 61.7898C387.862 63.4449 386.315 64.6809 384.683 65.4977C383.091 66.314 380.935 66.7362 378.216 66.7641ZM406.932 66.1094C404.892 66.1303 402.908 65.7307 400.98 64.9104C399.091 64.0898 397.179 62.9093 395.243 61.3691C395.162 61.2899 395.062 61.251 394.942 61.2522C394.622 61.2555 394.284 61.4389 393.927 61.8026L393.08 61.0913L399.009 54.1901L399.857 54.9614C399.699 55.163 399.562 55.4045 399.445 55.6857C399.368 55.9665 399.41 56.1861 399.572 56.3444C400.904 57.5308 402.133 58.4183 403.259 59.0067C404.425 59.5548 405.628 59.8225 406.868 59.8097C409.947 59.7781 411.477 58.7424 411.456 56.7025C411.446 55.7826 410.959 55.0875 409.994 54.6174C409.069 54.1069 407.503 53.5629 405.297 52.9855C402.45 52.2547 400.38 51.2959 399.088 50.1091C397.795 48.8823 397.138 47.2089 397.116 45.089C397.09 42.5692 397.889 40.5209 399.513 38.9441C401.137 37.3274 403.368 36.5044 406.208 36.4753C407.648 36.4605 408.95 36.6672 410.115 37.0952C411.279 37.5233 412.687 38.2889 414.338 39.392C414.379 39.4316 414.459 39.4508 414.579 39.4496C414.779 39.4475 414.978 39.3855 415.177 39.2634C415.376 39.1414 415.515 39.0199 415.593 38.8991L416.501 39.6698L411.164 45.8449L410.317 45.1336C410.475 44.9719 410.573 44.7709 410.611 44.5305C410.688 44.2497 410.646 44.0301 410.484 43.8718C409.758 43.3192 409.054 42.9064 408.371 42.6334C407.729 42.36 407.007 42.2274 406.207 42.2356C405.367 42.2442 404.709 42.411 404.232 42.7359C403.755 43.0608 403.52 43.5432 403.527 44.1832C403.532 44.7032 403.677 45.1217 403.96 45.4388C404.243 45.7559 404.746 46.0708 405.47 46.3834C406.233 46.6956 407.377 47.0838 408.902 47.5482C411.71 48.3595 413.922 49.5168 415.538 51.0203C417.153 52.4838 417.972 54.3155 417.994 56.5154C418.028 59.7552 417.032 62.1656 415.008 63.7464C412.984 65.2873 410.292 66.0749 406.932 66.1094Z" fill="white"/>
</g>
<path d="M161.096 80.0896L161.226 92.689L158.526 92.7167L158.397 80.1174L161.096 80.0896ZM165.97 91.8663L166.409 92.6358L161.172 92.6895L161.164 91.9156L165.97 91.8663ZM165.244 86.0594L165.252 86.8154L161.112 86.8578L161.104 86.1019L165.244 86.0594ZM166.064 80.0387L166.072 80.8126L161.05 80.8642L161.042 80.0902L166.064 80.0387ZM167.254 88.9369L166.463 92.6352L162.936 92.6714L163.576 91.8908C164.176 91.8847 164.702 91.7653 165.156 91.5326C165.61 91.2879 165.996 90.9479 166.316 90.5126C166.635 90.0653 166.888 89.5407 167.074 88.9388L167.254 88.9369ZM165.251 86.7794L165.269 88.5073L165.089 88.5091L165.088 88.3651C165.083 87.9212 164.935 87.5567 164.644 87.2716C164.353 86.9866 163.986 86.8404 163.542 86.8329L163.541 86.7969L165.251 86.7794ZM165.227 84.3675L165.244 86.0954L163.534 86.113L163.534 86.077C163.978 86.0604 164.342 85.9067 164.627 85.6157C164.912 85.3128 165.052 84.9393 165.048 84.4953L165.047 84.3693L165.227 84.3675ZM166.072 80.7586L166.093 82.8645L165.913 82.8664L165.911 82.6504C165.905 82.0984 165.733 81.6562 165.393 81.3236C165.066 80.991 164.62 80.8215 164.056 80.8153L164.056 80.7793L166.072 80.7586ZM166.061 79.7147L166.066 80.2367L163.868 80.0612C164.132 80.0585 164.408 80.0377 164.696 79.9987C164.995 79.9596 165.271 79.9148 165.522 79.8642C165.774 79.8136 165.953 79.7638 166.061 79.7147ZM158.566 91.4022L158.58 92.7161L157.14 92.7309L157.138 92.5509C157.138 92.5509 157.174 92.5505 157.246 92.5498C157.33 92.5489 157.372 92.5485 157.372 92.5485C157.684 92.5453 157.947 92.4346 158.161 92.2164C158.386 91.9861 158.504 91.7149 158.512 91.4028L158.566 91.4022ZM158.464 81.4307L158.41 81.4313C158.395 81.1194 158.272 80.8567 158.042 80.643C157.824 80.4172 157.559 80.306 157.247 80.3092C157.247 80.3092 157.205 80.3096 157.121 80.3105C157.049 80.3112 157.013 80.3116 157.013 80.3116L157.011 80.1316L158.451 80.1168L158.464 81.4307ZM172.2 81.7758L172.311 92.5752L169.719 92.6018L169.608 81.8024L172.2 81.7758ZM176.497 91.8122L176.937 92.5278L172.275 92.5756L172.268 91.8556L176.497 91.8122ZM177.659 89.2082L176.991 92.5272L173.877 92.5592L174.428 91.8335C174.944 91.8282 175.398 91.7215 175.792 91.5135C176.198 91.2933 176.543 90.9897 176.827 90.6028C177.111 90.2039 177.328 89.7396 177.479 89.21L177.659 89.2082ZM169.744 91.4675L169.845 92.6005L168.513 92.6142L168.511 92.4342C168.511 92.4342 168.547 92.4339 168.619 92.4331C168.691 92.4324 168.733 92.4319 168.745 92.4318C169.009 92.4291 169.23 92.3368 169.409 92.155C169.599 91.961 169.698 91.732 169.708 91.4679L169.744 91.4675ZM172.176 82.9101L172.164 81.7762L173.406 81.7634L173.408 81.9434C173.396 81.9435 173.354 81.944 173.282 81.9447C173.222 81.9453 173.192 81.9456 173.192 81.9456C172.928 81.9484 172.701 82.0407 172.511 82.2226C172.321 82.4046 172.221 82.6336 172.212 82.9098L172.176 82.9101ZM169.656 82.936L169.62 82.9363C169.605 82.6605 169.501 82.4335 169.307 82.2555C169.113 82.0775 168.884 81.9898 168.62 81.9926C168.608 81.9927 168.566 81.9931 168.494 81.9938C168.434 81.9945 168.404 81.9948 168.404 81.9948L168.402 81.8148L169.644 81.802L169.656 82.936ZM182.083 81.6744L182.194 92.4738L179.602 92.5004L179.491 81.701L182.083 81.6744ZM186.398 91.7107L186.819 92.4264L182.158 92.4742L182.15 91.7542L186.398 91.7107ZM185.735 86.7312L185.742 87.4512L182.107 87.4885L182.099 86.7685L185.735 86.7312ZM186.493 81.6292L186.5 82.3491L182.054 82.3947L182.047 81.6748L186.493 81.6292ZM187.523 89.107L186.873 92.4258L183.76 92.4578L184.31 91.7321C184.826 91.7268 185.281 91.6201 185.675 91.4121C186.081 91.1919 186.426 90.8883 186.71 90.5014C186.994 90.1025 187.211 89.6382 187.361 89.1086L187.523 89.107ZM185.742 87.4152L185.758 88.9991L185.578 89.0009L185.577 88.8569C185.573 88.461 185.443 88.1323 185.189 87.8709C184.946 87.6093 184.615 87.4747 184.194 87.467L184.194 87.431L185.742 87.4152ZM185.719 85.1833L185.735 86.7672L184.187 86.7831L184.187 86.7471C184.607 86.7308 184.935 86.5894 185.173 86.3229C185.422 86.0444 185.544 85.7071 185.54 85.3111L185.539 85.1851L185.719 85.1833ZM186.5 82.3131L186.519 84.221L186.339 84.2229L186.338 84.0609C186.332 83.5329 186.184 83.1204 185.893 82.8234C185.614 82.5262 185.21 82.3744 184.682 82.3678L184.682 82.3318L186.5 82.3131ZM186.49 81.3592L186.494 81.7912L184.603 81.6486C184.951 81.645 185.316 81.6112 185.7 81.5473C186.083 81.4714 186.346 81.4086 186.49 81.3592ZM179.626 91.3661L179.728 92.4991L178.396 92.5128L178.394 92.3328C178.394 92.3328 178.43 92.3324 178.502 92.3317C178.574 92.331 178.616 92.3305 178.628 92.3304C178.892 92.3277 179.113 92.2354 179.291 92.0536C179.481 91.8596 179.581 91.6306 179.59 91.3665L179.626 91.3661ZM179.539 82.8346L179.503 82.8349C179.488 82.5591 179.383 82.3321 179.19 82.1541C179.008 81.976 178.785 81.8883 178.521 81.891C178.509 81.8911 178.467 81.8915 178.395 81.8923C178.323 81.893 178.287 81.8934 178.287 81.8934L178.285 81.7134L179.617 81.6997L179.539 82.8346ZM199.699 87.776L199.925 90.4918C199.701 90.8781 199.387 91.2294 198.982 91.5455C198.577 91.8497 198.082 92.0948 197.496 92.2808C196.909 92.4669 196.226 92.5639 195.446 92.5719C194.102 92.5737 192.942 92.3576 191.966 91.9235C190.989 91.4895 190.233 90.8613 189.696 90.0387C189.172 89.2041 188.903 88.1868 188.891 86.9868C188.879 85.8109 189.126 84.8063 189.634 83.9731C190.141 83.1278 190.879 82.4782 191.846 82.0243C192.813 81.5583 193.975 81.3184 195.331 81.3045C196.147 81.2961 196.904 81.3663 197.601 81.5152C198.311 81.6639 198.901 81.8559 199.371 82.091L199.419 84.9527L199.275 84.9542C198.963 83.8533 198.481 83.0842 197.829 82.6469C197.176 82.2096 196.406 81.9955 195.518 82.0046C194.642 82.0136 193.912 82.2251 193.328 82.6391C192.757 83.053 192.325 83.6274 192.032 84.3625C191.752 85.0974 191.616 85.9568 191.626 86.9408C191.637 87.9367 191.79 88.7992 192.085 89.5282C192.393 90.2571 192.83 90.8226 193.399 91.2248C193.967 91.627 194.647 91.836 195.439 91.8519C196.291 91.8432 196.992 91.704 197.541 91.4343C198.102 91.1645 198.542 90.734 198.86 90.1427C199.19 89.5513 199.422 88.7629 199.556 87.7775L199.699 87.776ZM207.386 81.4688L207.497 92.2142L204.887 92.241L204.776 81.4956L207.386 81.4688ZM211.309 81.3565L211.317 82.0765L200.877 82.1836L200.87 81.4636L211.309 81.3565ZM211.316 82.0225L211.336 83.9304L211.138 83.9324L211.136 83.7704C211.143 83.2543 210.995 82.8478 210.692 82.5509C210.401 82.2539 209.997 82.102 209.481 82.0953L209.48 82.0413L211.316 82.0225ZM211.307 81.0865L211.311 81.5365L209.401 81.3761C209.629 81.3738 209.875 81.3592 210.139 81.3325C210.403 81.2938 210.642 81.2554 210.858 81.2171C211.073 81.1669 211.223 81.1234 211.307 81.0865ZM204.911 91.1067L204.923 92.2406L203.717 92.253L203.715 92.073C203.715 92.073 203.745 92.0727 203.805 92.0721C203.877 92.0713 203.913 92.071 203.913 92.071C204.177 92.0683 204.398 91.976 204.576 91.7942C204.766 91.6002 204.866 91.3712 204.875 91.107L204.911 91.1067ZM207.431 91.0808L207.485 91.0803C207.488 91.3443 207.586 91.5713 207.78 91.7613C207.974 91.9393 208.209 92.0269 208.485 92.0241C208.485 92.0241 208.515 92.0238 208.575 92.0231C208.647 92.0224 208.683 92.022 208.683 92.022L208.684 92.202L207.443 92.2148L207.431 91.0808ZM202.713 82.1108L202.713 82.1648C202.185 82.1822 201.779 82.3424 201.494 82.6453C201.221 82.9481 201.087 83.3575 201.093 83.8735L201.094 84.0355L200.896 84.0375L200.877 82.1296L202.713 82.1108ZM200.867 81.1936C200.975 81.2165 201.132 81.2509 201.336 81.2968C201.553 81.3426 201.787 81.3822 202.039 81.4156C202.304 81.4369 202.544 81.4465 202.76 81.4442L200.872 81.6436L200.867 81.1936ZM216.141 81.3249L218.085 81.305C218.577 81.2999 219.057 81.349 219.526 81.4522C219.995 81.5434 220.417 81.7011 220.791 81.9253C221.165 82.1374 221.463 82.4344 221.682 82.8162C221.914 83.1858 222.033 83.6526 222.039 84.2166C222.043 84.6366 221.957 85.0575 221.782 85.4793C221.618 85.889 221.352 86.2457 220.983 86.5495C220.626 86.8532 220.154 87.0561 219.567 87.1581C219.916 87.2625 220.248 87.4691 220.563 87.7779C220.891 88.0866 221.146 88.378 221.328 88.6521C221.377 88.7476 221.463 88.9027 221.585 89.1175C221.707 89.3203 221.86 89.5587 222.042 89.8328C222.237 90.0949 222.438 90.3688 222.645 90.6547C222.888 90.9762 223.101 91.2261 223.283 91.4042C223.464 91.5703 223.652 91.6884 223.844 91.7585C224.037 91.8285 224.259 91.8622 224.511 91.8596L224.513 92.0396L223.001 92.0551C222.353 92.0618 221.801 92.0194 221.344 91.9281C220.899 91.8367 220.507 91.6667 220.169 91.4181C219.842 91.1575 219.538 90.8066 219.258 90.3654C219.148 90.2106 219.032 90.0257 218.91 89.811C218.788 89.5842 218.665 89.3575 218.543 89.1307C218.421 88.904 218.31 88.6831 218.212 88.4681C218.126 88.2529 218.064 88.0736 218.027 87.9299C217.867 87.5476 217.684 87.2734 217.478 87.1075C217.284 86.9295 217.104 86.8414 216.936 86.8431L216.934 86.6811C216.934 86.6811 216.976 86.6807 217.06 86.6798C217.144 86.6789 217.252 86.6778 217.384 86.6765C217.636 86.6739 217.881 86.6294 218.121 86.5429C218.372 86.4443 218.598 86.268 218.799 86.0139C219 85.7478 219.146 85.3623 219.237 84.8574C219.261 84.7851 219.277 84.6829 219.288 84.5508C219.311 84.4186 219.315 84.2685 219.302 84.1007C219.273 83.6569 219.185 83.3038 219.039 83.0413C218.904 82.7667 218.734 82.5644 218.528 82.4345C218.323 82.2926 218.112 82.1988 217.895 82.153C217.691 82.0951 217.511 82.0669 217.355 82.0685C217.126 82.0589 216.916 82.061 216.725 82.075C216.545 82.0768 216.407 82.0723 216.31 82.0612C216.298 82.0614 216.28 82.0016 216.255 81.8818C216.229 81.7501 216.204 81.6243 216.179 81.5046C216.153 81.3848 216.141 81.3249 216.141 81.3249ZM216.321 81.3231L216.432 92.1225L213.822 92.1493L213.711 81.3499L216.321 81.3231ZM213.864 91.0148L213.948 92.148L212.652 92.1613L212.65 91.9813C212.662 91.9812 212.692 91.9809 212.74 91.9804C212.8 91.9798 212.842 91.9794 212.866 91.9791C213.13 91.9764 213.351 91.8841 213.529 91.7023C213.719 91.5083 213.819 91.2793 213.828 91.0152L213.864 91.0148ZM213.776 82.4653L213.74 82.4656C213.726 82.1898 213.621 81.9688 213.428 81.8028C213.246 81.6247 213.029 81.5369 212.777 81.5395C212.741 81.5398 212.693 81.5403 212.633 81.5409C212.585 81.5414 212.555 81.5417 212.543 81.5419L212.541 81.3619L213.837 81.3486L213.776 82.4653ZM216.384 90.989L216.42 90.9886C216.423 91.2886 216.528 91.5215 216.733 91.6874C216.951 91.8532 217.18 91.9348 217.42 91.9324C217.42 91.9324 217.444 91.9321 217.492 91.9316C217.54 91.9311 217.576 91.9308 217.6 91.9305L217.602 92.1105L216.306 92.1238L216.384 90.989ZM230.513 80.9435C231.472 80.9336 232.344 81.0567 233.126 81.3127C233.909 81.5566 234.585 81.9217 235.154 82.4079C235.723 82.8941 236.161 83.4836 236.468 84.1765C236.787 84.8693 236.951 85.6537 236.96 86.5296C236.969 87.3936 236.821 88.1751 236.516 88.8743C236.223 89.5613 235.797 90.1537 235.238 90.6515C234.679 91.1493 234.011 91.5341 233.234 91.8061C232.457 92.0661 231.588 92.201 230.628 92.2109C229.68 92.2206 228.815 92.1035 228.032 91.8595C227.25 91.6035 226.574 91.2324 226.005 90.7462C225.436 90.26 224.998 89.6765 224.691 88.9956C224.384 88.3027 224.226 87.5243 224.217 86.6604C224.208 85.7844 224.35 84.9969 224.643 84.2979C224.935 83.5988 225.361 83.0004 225.92 82.5027C226.479 82.0049 227.147 81.626 227.925 81.366C228.702 81.0941 229.565 80.9532 230.513 80.9435ZM230.621 91.5089C231.353 91.5014 231.987 91.2969 232.523 90.8954C233.071 90.4817 233.485 89.9074 233.765 89.1725C234.058 88.4375 234.199 87.566 234.188 86.558C234.178 85.5381 234.019 84.6637 233.711 83.9348C233.416 83.1938 232.99 82.6281 232.434 82.2378C231.89 81.8354 231.252 81.6379 230.52 81.6454C229.8 81.6528 229.172 81.8633 228.636 82.2768C228.1 82.6783 227.686 83.2526 227.394 83.9996C227.101 84.7347 226.96 85.6122 226.971 86.6321C226.981 87.6401 227.14 88.5085 227.447 89.2374C227.755 89.9662 228.181 90.5319 228.725 90.9343C229.269 91.3248 229.901 91.5163 230.621 91.5089ZM239.162 80.8367L249.823 90.0158L250.024 92.0119L239.381 82.8326L239.162 80.8367ZM239.336 90.7894L239.348 91.8874L238.016 91.9011L238.014 91.7211C238.014 91.7211 238.062 91.7206 238.158 91.7196C238.254 91.7186 238.302 91.7181 238.302 91.7181C238.578 91.7153 238.811 91.6289 239.001 91.4589C239.191 91.277 239.285 91.054 239.282 90.79L239.336 90.7894ZM241.748 90.7647C241.763 91.0286 241.867 91.2495 242.061 91.4275C242.255 91.5935 242.484 91.6752 242.748 91.6725C242.748 91.6725 242.796 91.672 242.892 91.671C243 91.6699 243.054 91.6694 243.054 91.6694L243.056 91.8493L241.724 91.863L241.712 90.7651L241.748 90.7647ZM239.162 80.8367L241.674 83.5111L241.76 91.8626L239.294 91.8879L239.201 82.8884C239.195 82.2765 239.16 81.7848 239.096 81.4134C239.032 81.0301 239 80.8384 239 80.8384L239.162 80.8367ZM249.892 80.9786L249.984 89.9062C249.988 90.3261 250.004 90.698 250.031 91.0217C250.071 91.3333 250.103 91.579 250.129 91.7588C250.167 91.9264 250.186 92.0102 250.186 92.0102L250.024 92.0119L247.51 89.1755L247.426 81.0039L249.892 80.9786ZM249.85 82.0771L249.838 80.9792L251.188 80.9653L251.19 81.1453C251.19 81.1453 251.136 81.1459 251.028 81.147C250.932 81.148 250.884 81.1485 250.884 81.1485C250.62 81.1512 250.387 81.2436 250.185 81.4256C249.995 81.5956 249.901 81.8126 249.904 82.0766L249.85 82.0771ZM247.438 82.1019C247.423 81.838 247.319 81.6231 247.125 81.457C246.943 81.2789 246.714 81.1912 246.438 81.1941C246.438 81.1941 246.384 81.1946 246.276 81.1957C246.18 81.1967 246.132 81.1972 246.132 81.1972L246.131 81.0172L247.462 81.0036L247.474 82.1015L247.438 82.1019ZM256.197 80.9139L256.308 91.7134L253.716 91.74L253.605 80.9405L256.197 80.9139ZM253.759 90.6055L253.77 91.7394L252.456 91.7529L252.455 91.5729C252.455 91.5729 252.491 91.5725 252.563 91.5718C252.635 91.571 252.676 91.5706 252.688 91.5705C252.964 91.5677 253.204 91.4752 253.406 91.2931C253.608 91.099 253.707 90.87 253.705 90.606L253.759 90.6055ZM256.261 90.5798L256.297 90.5794C256.311 90.8433 256.416 91.0702 256.61 91.2602C256.815 91.4381 257.062 91.5256 257.35 91.5227C257.35 91.5227 257.38 91.5224 257.44 91.5217C257.512 91.521 257.554 91.5206 257.566 91.5204L257.568 91.7004L256.272 91.7137L256.261 90.5798ZM256.173 82.0482L256.161 80.9143L257.457 80.901L257.441 81.0812C257.441 81.0812 257.411 81.0815 257.351 81.0821C257.291 81.0827 257.255 81.0831 257.243 81.0832C256.955 81.0862 256.71 81.1787 256.508 81.3608C256.318 81.5427 256.218 81.7718 256.209 82.0479L256.173 82.0482ZM253.671 82.0739L253.617 82.0745C253.614 81.7985 253.51 81.5715 253.304 81.3936C253.098 81.2157 252.851 81.1283 252.563 81.1312C252.563 81.1312 252.527 81.1316 252.455 81.1323C252.383 81.1331 252.347 81.1334 252.347 81.1334L252.346 80.9535L253.659 80.94L253.671 82.0739ZM269.559 87.0592L269.785 89.775C269.561 90.1613 269.246 90.5126 268.842 90.8287C268.437 91.1329 267.941 91.378 267.355 91.564C266.769 91.75 266.086 91.847 265.306 91.8551C263.962 91.8568 262.802 91.6407 261.825 91.2067C260.849 90.7727 260.092 90.1445 259.556 89.3219C259.031 88.4873 258.763 87.47 258.75 86.27C258.738 85.0941 258.986 84.0895 259.493 83.2562C260.001 82.411 260.738 81.7614 261.706 81.3074C262.673 80.8415 263.834 80.6016 265.19 80.5876C266.006 80.5793 266.763 80.6495 267.461 80.7984C268.17 80.9471 268.76 81.139 269.231 81.3742L269.278 84.2359L269.134 84.2374C268.823 83.1365 268.341 82.3674 267.688 81.9301C267.036 81.4928 266.266 81.2786 265.378 81.2878C264.502 81.2967 263.772 81.5082 263.188 81.9223C262.616 82.3361 262.184 82.9106 261.892 83.6457C261.611 84.3806 261.476 85.24 261.486 86.2239C261.496 87.2199 261.649 88.0824 261.945 88.8114C262.252 89.5403 262.69 90.1058 263.258 90.508C263.826 90.9102 264.506 91.1192 265.299 91.1351C266.151 91.1263 266.851 90.9872 267.4 90.7175C267.962 90.4477 268.401 90.0172 268.719 89.4259C269.049 88.8345 269.281 88.0461 269.415 87.0606L269.559 87.0592ZM274.831 80.4887C275.071 80.4863 275.359 80.4953 275.695 80.5159C276.044 80.5363 276.386 80.5628 276.722 80.5953C277.058 80.6159 277.353 80.6489 277.605 80.6943C277.87 80.7276 278.05 80.7617 278.146 80.7967L277.935 82.995L277.773 82.9967C277.767 82.4447 277.571 82.0087 277.183 81.6887C276.796 81.3686 276.242 81.2123 275.523 81.2197C274.947 81.2256 274.48 81.3564 274.122 81.6121C273.777 81.8676 273.595 82.2055 273.575 82.6257C273.553 82.842 273.591 83.0396 273.689 83.2186C273.799 83.3855 273.944 83.534 274.126 83.6641C274.319 83.7942 274.53 83.924 274.76 84.0536L277.603 85.7706C278.086 86.0056 278.467 86.3497 278.748 86.8029C279.029 87.256 279.154 87.8068 279.125 88.4551C279.096 89.1274 278.904 89.7114 278.549 90.2071C278.206 90.7026 277.724 91.0856 277.103 91.356C276.493 91.6143 275.769 91.7477 274.929 91.7563C274.413 91.7616 273.932 91.7245 273.487 91.6451C273.043 91.5657 272.657 91.4556 272.332 91.3149C272.018 91.1741 271.777 91.0146 271.607 90.8363C271.509 90.5973 271.464 90.3098 271.472 89.9737C271.481 89.6256 271.531 89.283 271.624 88.9461C271.716 88.5971 271.833 88.3079 271.975 88.0784L272.119 88.077C272.088 88.6173 272.189 89.1143 272.422 89.5679C272.667 90.0214 273.018 90.3838 273.477 90.6551C273.936 90.9145 274.483 91.0408 275.119 91.0343C275.815 91.0272 276.335 90.8598 276.68 90.5323C277.025 90.2047 277.195 89.825 277.19 89.393C277.187 89.069 277.076 88.7821 276.858 88.5324C276.651 88.2705 276.306 88.016 275.824 87.7689L273.251 86.1752C272.648 85.8694 272.206 85.4599 271.925 84.9468C271.655 84.4335 271.554 83.8705 271.619 83.2578C271.673 82.6812 271.836 82.1875 272.108 81.7767C272.392 81.3658 272.767 81.0499 273.232 80.8291C273.698 80.6084 274.231 80.4949 274.831 80.4887ZM278.144 80.6167L278.13 80.9409L276.204 80.9607L276.201 80.6367L278.144 80.6167ZM291.347 78.5012C291.827 78.4962 292.296 78.5394 292.753 78.6307C293.222 78.7219 293.649 78.8616 294.035 79.0496C294.421 79.2257 294.717 79.4566 294.924 79.7425L294.303 82.323L294.141 82.3247C294.135 81.7847 294.052 81.2816 293.891 80.8152C293.73 80.3488 293.48 79.9733 293.141 79.6888C292.814 79.3922 292.375 79.2467 291.823 79.2523C291.223 79.2585 290.733 79.4615 290.353 79.8614C289.985 80.2612 289.804 80.7671 289.811 81.3791C289.818 82.075 290.083 82.7384 290.605 83.369C291.139 83.9876 291.903 84.7238 292.896 85.5776C293.15 85.791 293.435 86.0401 293.75 86.3249C294.076 86.6096 294.397 86.8823 294.712 87.1431C295.039 87.4038 295.311 87.629 295.529 87.8187C296.183 88.3641 296.776 88.862 297.308 89.3126C297.841 89.7631 298.331 90.1421 298.778 90.4495C299.225 90.745 299.647 90.9507 300.045 91.0666L300.047 91.2646C299.579 91.3174 299.039 91.3529 298.428 91.3712C297.816 91.4015 297.185 91.3479 296.536 91.2106C295.886 91.0732 295.253 90.7917 294.637 90.366C294.323 90.1412 293.984 89.8867 293.621 89.6024C293.258 89.3181 292.895 89.0338 292.532 88.7495C292.181 88.4531 291.854 88.1805 291.552 87.9316C291.261 87.6825 291.025 87.4809 290.844 87.3268C290.142 86.734 289.499 86.1465 288.917 85.5645C288.347 84.9823 287.891 84.3809 287.549 83.7604C287.207 83.1399 287.032 82.4696 287.024 81.7497C287.019 81.1977 287.134 80.7225 287.37 80.3241C287.605 79.9136 287.926 79.5743 288.331 79.3061C288.749 79.0378 289.215 78.8411 289.729 78.7158C290.256 78.5784 290.795 78.5068 291.347 78.5012ZM297.463 85.0628C297.493 85.7105 297.458 86.3469 297.356 86.9719C297.255 87.585 297.069 88.163 296.798 88.7058C296.54 89.2484 296.179 89.7322 295.715 90.157C295.263 90.5816 294.691 90.9175 293.997 91.1646C293.316 91.3996 292.495 91.5221 291.535 91.5319C290.995 91.5375 290.43 91.5012 289.842 91.4233C289.253 91.3453 288.687 91.2191 288.146 91.0447C287.604 90.8582 287.109 90.6113 286.662 90.3039C286.227 89.9843 285.881 89.5978 285.624 89.1444C285.367 88.691 285.236 88.1524 285.229 87.5284C285.224 87.0364 285.304 86.6096 285.468 86.2479C285.632 85.8742 285.851 85.5539 286.124 85.2871C286.41 85.0082 286.713 84.783 287.036 84.6117C287.358 84.4404 287.675 84.3051 287.985 84.206C288.308 84.1066 288.59 84.0497 288.83 84.0353L289.175 84.3738C289.08 84.4707 288.968 84.5919 288.837 84.7372C288.706 84.8826 288.576 85.0639 288.447 85.2813C288.317 85.4986 288.211 85.7637 288.131 86.0766C288.062 86.3773 288.041 86.7315 288.07 87.1392C288.1 87.739 288.237 88.2716 288.482 88.7371C288.727 89.1906 289.037 89.5714 289.412 89.8796C289.799 90.1757 290.233 90.3992 290.715 90.5503C291.196 90.7013 291.695 90.7742 292.211 90.7689C292.847 90.7624 293.398 90.6248 293.863 90.356C294.34 90.0751 294.732 89.717 295.04 89.2818C295.348 88.8467 295.571 88.3703 295.709 87.8529C295.848 87.3354 295.903 86.8249 295.874 86.3211C295.844 85.8174 295.732 85.3625 295.536 84.9565C295.401 84.6699 295.237 84.4616 295.043 84.3315C294.862 84.2014 294.651 84.1376 294.411 84.14L294.141 84.1428L294.139 83.9628L298.351 83.9196L298.353 84.0996L298.101 84.1022C297.825 84.105 297.646 84.1968 297.564 84.3777C297.493 84.5464 297.46 84.7748 297.463 85.0628ZM308.874 78.5733L309.004 91.1727L306.304 91.2004L306.174 78.601L308.874 78.5733ZM313.022 84.5431L313.03 85.299L308.89 85.3415L308.882 84.5856L313.022 84.5431ZM313.842 78.5224L313.85 79.2963L308.828 79.3478L308.82 78.5739L313.842 78.5224ZM313.029 85.2631L313.047 86.991L312.867 86.9928L312.865 86.8488C312.861 86.4048 312.713 86.0403 312.422 85.7553C312.131 85.4703 311.764 85.324 311.32 85.3166L311.319 85.2806L313.029 85.2631ZM313.004 82.8512L313.022 84.5791L311.312 84.5966L311.312 84.5606C311.756 84.5441 312.12 84.3903 312.405 84.0994C312.69 83.7965 312.83 83.423 312.826 82.979L312.824 82.853L313.004 82.8512ZM313.849 79.2423L313.87 81.2402L313.69 81.2421L313.688 81.0621C313.683 80.5221 313.516 80.0978 313.189 79.7891C312.874 79.4683 312.446 79.3107 311.906 79.3163L311.906 79.2623L313.849 79.2423ZM313.839 78.1984L313.844 78.7203L311.646 78.5449C311.91 78.5422 312.186 78.5213 312.474 78.4824C312.773 78.4433 313.049 78.3985 313.3 78.3479C313.552 78.2973 313.731 78.2475 313.839 78.1984ZM306.344 89.8859L306.358 91.1998L304.918 91.2146L304.916 91.0346C304.916 91.0346 304.952 91.0342 305.024 91.0335C305.108 91.0326 305.15 91.0322 305.15 91.0322C305.462 91.029 305.725 90.9183 305.939 90.7001C306.164 90.4698 306.281 90.1985 306.29 89.8864L306.344 89.8859ZM306.242 79.9144L306.188 79.915C306.173 79.6031 306.05 79.3403 305.82 79.1267C305.602 78.9009 305.336 78.7896 305.024 78.7928C305.024 78.7928 304.982 78.7933 304.898 78.7941C304.826 78.7949 304.79 78.7952 304.79 78.7952L304.789 78.6153L306.228 78.6005L306.242 79.9144ZM308.936 89.8593L308.99 89.8587C309.005 90.1706 309.122 90.4394 309.34 90.6652C309.571 90.8788 309.842 90.9841 310.154 90.9809C310.154 90.9809 310.19 90.9805 310.262 90.9797C310.334 90.979 310.376 90.9786 310.388 90.9785L310.39 91.1584L308.95 91.1732L308.936 89.8593ZM319.041 80.2691L319.11 87.0548C319.122 88.1587 319.382 89.0201 319.893 89.6389C320.415 90.2575 321.132 90.5622 322.044 90.5528C322.992 90.5431 323.721 90.2416 324.231 89.6483C324.753 89.055 325.015 88.2362 325.016 87.1922L324.944 80.2085L326.132 80.1963L326.203 87.072C326.216 88.3559 325.83 89.3739 325.046 90.126C324.274 90.878 323.168 91.2613 321.728 91.2761C319.988 91.294 318.688 90.9413 317.829 90.2181C316.969 89.4828 316.533 88.4733 316.519 87.1893L316.449 80.2957L319.041 80.2691ZM316.485 80.2953L316.494 81.2313L316.458 81.2317C316.444 81.0038 316.358 80.8187 316.201 80.6763C316.043 80.5339 315.85 80.4639 315.622 80.4662C315.622 80.4662 315.58 80.4666 315.496 80.4675C315.412 80.4683 315.37 80.4688 315.37 80.4688L315.369 80.3068L316.485 80.2953ZM320.103 80.2582L320.104 80.4202C320.104 80.4202 320.062 80.4206 319.978 80.4215C319.894 80.4224 319.852 80.4228 319.852 80.4228C319.624 80.4251 319.433 80.4991 319.278 80.6447C319.124 80.7903 319.048 80.9771 319.05 81.2051L319.014 81.2054L319.005 80.2695L320.103 80.2582ZM324.98 80.2082L324.99 81.1441L324.954 81.1445C324.94 80.9166 324.854 80.7315 324.696 80.5891C324.539 80.4467 324.352 80.3766 324.136 80.3788C324.136 80.3788 324.094 80.3793 324.01 80.3801C323.926 80.381 323.884 80.3814 323.884 80.3814L323.882 80.2194L324.98 80.2082ZM327.194 80.1854L327.196 80.3474C327.196 80.3474 327.154 80.3479 327.07 80.3487C326.998 80.3495 326.962 80.3498 326.962 80.3498C326.734 80.3522 326.537 80.4262 326.37 80.5719C326.216 80.7175 326.14 80.9043 326.142 81.1323L326.106 81.1327L326.096 80.1967L327.194 80.1854ZM332.091 80.1352L334.035 80.1153C334.527 80.1102 335.008 80.1593 335.477 80.2625C335.946 80.3537 336.367 80.5113 336.742 80.7355C337.116 80.9477 337.413 81.2447 337.633 81.6264C337.865 81.9961 337.984 82.4629 337.989 83.0268C337.994 83.4468 337.908 83.8677 337.732 84.2895C337.568 84.6992 337.302 85.056 336.933 85.3598C336.576 85.6635 336.104 85.8663 335.517 85.9684C335.866 86.0728 336.199 86.2794 336.514 86.5882C336.841 86.8968 337.096 87.1882 337.279 87.4624C337.328 87.5579 337.413 87.713 337.536 87.9277C337.658 88.1305 337.81 88.369 337.993 88.6431C338.188 88.9051 338.388 89.1791 338.595 89.465C338.839 89.7865 339.051 90.0363 339.233 90.2145C339.415 90.3806 339.602 90.4987 339.795 90.5687C339.988 90.6387 340.21 90.6725 340.462 90.6699L340.464 90.8499L338.952 90.8654C338.304 90.872 337.751 90.8297 337.294 90.7384C336.849 90.6469 336.458 90.4769 336.119 90.2284C335.792 89.9677 335.489 89.6168 335.208 89.1757C335.099 89.0208 334.983 88.836 334.861 88.6212C334.738 88.3945 334.616 88.1677 334.494 87.941C334.371 87.7142 334.261 87.4933 334.163 87.2783C334.077 87.0632 334.015 86.8838 333.977 86.7402C333.817 86.3578 333.634 86.0837 333.429 85.9178C333.235 85.7398 333.054 85.6516 332.886 85.6533L332.884 85.4913C332.884 85.4913 332.926 85.4909 333.01 85.4901C333.094 85.4892 333.202 85.4881 333.334 85.4867C333.586 85.4841 333.832 85.4396 334.071 85.3532C334.322 85.2546 334.548 85.0783 334.75 84.8242C334.951 84.5581 335.097 84.1726 335.188 83.6676C335.211 83.5954 335.228 83.4932 335.239 83.3611C335.261 83.2288 335.266 83.0788 335.252 82.9109C335.223 82.4672 335.136 82.1141 334.989 81.8516C334.854 81.5769 334.684 81.3747 334.479 81.2448C334.273 81.1029 334.062 81.009 333.846 80.9632C333.641 80.9053 333.461 80.8772 333.305 80.8788C333.077 80.8691 332.867 80.8713 332.675 80.8852C332.495 80.8871 332.357 80.8825 332.261 80.8715C332.249 80.8716 332.23 80.8118 332.205 80.6921C332.18 80.5603 332.154 80.4346 332.129 80.3148C332.104 80.1951 332.091 80.1352 332.091 80.1352ZM332.271 80.1334L332.382 90.9328L329.772 90.9596L329.661 80.1601L332.271 80.1334ZM329.815 89.8251L329.898 90.9583L328.602 90.9716L328.6 90.7916C328.612 90.7915 328.642 90.7911 328.69 90.7907C328.75 90.79 328.792 90.7896 328.816 90.7894C329.08 90.7867 329.302 90.6944 329.48 90.5125C329.67 90.3186 329.769 90.0895 329.779 89.8254L329.815 89.8251ZM329.727 81.2755L329.691 81.2759C329.676 81 329.572 80.7791 329.378 80.6131C329.196 80.4349 328.979 80.3471 328.727 80.3497C328.691 80.3501 328.643 80.3506 328.583 80.3512C328.535 80.3517 328.505 80.352 328.493 80.3521L328.492 80.1721L329.787 80.1588L329.727 81.2755ZM332.335 89.7992L332.371 89.7988C332.374 90.0988 332.478 90.3318 332.684 90.4977C332.901 90.6634 333.13 90.7451 333.37 90.7426C333.37 90.7426 333.394 90.7424 333.442 90.7419C333.49 90.7414 333.526 90.741 333.55 90.7408L333.552 90.9208L332.256 90.9341L332.335 89.7992ZM341.416 79.7875L352.077 88.9666L352.277 90.9627L341.634 81.7834L341.416 79.7875ZM341.59 89.7402L341.601 90.8382L340.269 90.8519L340.268 90.6719C340.268 90.6719 340.316 90.6714 340.412 90.6704C340.508 90.6694 340.556 90.6689 340.556 90.6689C340.831 90.6661 341.065 90.5797 341.255 90.4097C341.445 90.2278 341.539 90.0048 341.536 89.7408L341.59 89.7402ZM344.002 89.7155C344.017 89.9794 344.121 90.2003 344.315 90.3783C344.508 90.5443 344.737 90.626 345.001 90.6233C345.001 90.6233 345.049 90.6228 345.145 90.6218C345.253 90.6207 345.307 90.6202 345.307 90.6202L345.309 90.8001L343.977 90.8138L343.966 89.7159L344.002 89.7155ZM341.416 79.7875L343.927 82.4619L344.013 90.8134L341.547 90.8387L341.455 81.8392C341.449 81.2272 341.414 80.7356 341.35 80.3642C341.286 79.9809 341.254 79.7892 341.254 79.7892L341.416 79.7875ZM352.146 79.9294L352.238 88.857C352.242 89.2769 352.258 89.6488 352.285 89.9725C352.324 90.2841 352.357 90.5298 352.383 90.7096C352.42 90.8772 352.439 90.961 352.439 90.961L352.277 90.9627L349.764 88.1263L349.68 79.9547L352.146 79.9294ZM352.103 81.0279L352.092 79.93L353.442 79.9161L353.444 80.0961C353.444 80.0961 353.39 80.0967 353.282 80.0978C353.186 80.0988 353.138 80.0993 353.138 80.0993C352.874 80.102 352.641 80.1944 352.439 80.3764C352.248 80.5464 352.154 80.7634 352.157 81.0274L352.103 81.0279ZM349.691 81.0527C349.677 80.7888 349.572 80.5739 349.379 80.4078C349.197 80.2297 348.968 80.142 348.692 80.1449C348.692 80.1449 348.638 80.1454 348.53 80.1465C348.434 80.1475 348.386 80.148 348.386 80.148L348.384 79.968L349.716 79.9544L349.727 81.0523L349.691 81.0527ZM358.451 79.8647L358.562 90.6642L355.97 90.6908L355.859 79.8913L358.451 79.8647ZM356.012 89.5563L356.024 90.6902L354.71 90.7037L354.708 90.5237C354.708 90.5237 354.744 90.5233 354.816 90.5226C354.888 90.5218 354.93 90.5214 354.942 90.5213C355.218 90.5185 355.457 90.426 355.659 90.2439C355.861 90.0498 355.961 89.8208 355.958 89.5568L356.012 89.5563ZM358.514 89.5306L358.55 89.5302C358.565 89.7941 358.669 90.021 358.863 90.211C359.069 90.3889 359.316 90.4764 359.604 90.4735C359.604 90.4735 359.634 90.4731 359.694 90.4725C359.766 90.4718 359.808 90.4714 359.82 90.4712L359.822 90.6512L358.526 90.6645L358.514 89.5306ZM358.427 80.999L358.415 79.8651L359.711 79.8518L359.695 80.032C359.695 80.032 359.665 80.0323 359.605 80.0329C359.545 80.0335 359.509 80.0339 359.497 80.034C359.209 80.037 358.964 80.1295 358.762 80.3116C358.571 80.4935 358.472 80.7226 358.463 80.9987L358.427 80.999ZM355.925 81.0247L355.871 81.0253C355.868 80.7493 355.764 80.5223 355.558 80.3444C355.352 80.1665 355.105 80.0791 354.817 80.082C354.817 80.082 354.781 80.0824 354.709 80.0831C354.637 80.0839 354.601 80.0842 354.601 80.0842L354.599 79.9043L355.913 79.8908L355.925 81.0247ZM367.191 79.829L367.301 90.5745L364.692 90.6013L364.581 79.8558L367.191 79.829ZM371.114 79.7168L371.122 80.4368L360.682 80.5439L360.675 79.8239L371.114 79.7168ZM371.121 80.3828L371.141 82.2907L370.943 82.2927L370.941 82.1307C370.948 81.6146 370.8 81.2081 370.496 80.9112C370.205 80.6142 369.802 80.4623 369.286 80.4556L369.285 80.4016L371.121 80.3828ZM371.111 79.4468L371.116 79.8968L369.206 79.7364C369.434 79.734 369.68 79.7195 369.944 79.6928C370.208 79.6541 370.447 79.6156 370.663 79.5774C370.878 79.5272 371.028 79.4837 371.111 79.4468ZM364.716 89.467L364.728 90.6009L363.522 90.6133L363.52 90.4333C363.52 90.4333 363.55 90.433 363.61 90.4324C363.682 90.4316 363.718 90.4312 363.718 90.4312C363.982 90.4285 364.203 90.3363 364.381 90.1544C364.571 89.9605 364.671 89.7314 364.68 89.4673L364.716 89.467ZM367.236 89.4411L367.29 89.4405C367.292 89.7045 367.391 89.9315 367.585 90.1216C367.779 90.2996 368.014 90.3872 368.29 90.3843C368.29 90.3843 368.32 90.384 368.38 90.3834C368.452 90.3827 368.488 90.3823 368.488 90.3823L368.489 90.5623L367.247 90.575L367.236 89.4411ZM362.518 80.471L362.518 80.525C361.99 80.5424 361.584 80.7026 361.299 81.0056C361.026 81.3084 360.892 81.7178 360.898 82.2338L360.899 82.3957L360.701 82.3978L360.682 80.4899L362.518 80.471ZM360.672 79.5539C360.78 79.5768 360.937 79.6112 361.141 79.6571C361.358 79.7029 361.592 79.7425 361.844 79.7759C362.109 79.7972 362.349 79.8067 362.565 79.8045L360.677 80.0039L360.672 79.5539ZM375.713 79.6876L375.783 86.4732C375.794 87.5772 376.055 88.4386 376.565 89.0574C377.088 89.676 377.805 89.9807 378.717 89.9713C379.665 89.9616 380.394 89.6601 380.904 89.0668C381.425 88.4735 381.687 87.6547 381.688 86.6107L381.617 79.627L382.805 79.6148L382.875 86.4905C382.888 87.7744 382.503 88.7924 381.718 89.5445C380.946 90.2965 379.84 90.6798 378.4 90.6946C376.66 90.7125 375.361 90.3598 374.501 89.6366C373.641 88.9013 373.205 87.8918 373.192 86.6078L373.121 79.7142L375.713 79.6876ZM373.157 79.7138L373.167 80.6498L373.131 80.6501C373.116 80.4223 373.031 80.2372 372.873 80.0948C372.716 79.9524 372.523 79.8823 372.295 79.8847C372.295 79.8847 372.253 79.8851 372.169 79.886C372.085 79.8868 372.043 79.8873 372.043 79.8873L372.041 79.7253L373.157 79.7138ZM376.775 79.6767L376.777 79.8387C376.777 79.8387 376.735 79.8391 376.651 79.84C376.567 79.8409 376.525 79.8413 376.525 79.8413C376.297 79.8436 376.105 79.9176 375.951 80.0632C375.796 80.2088 375.72 80.3956 375.723 80.6236L375.687 80.6239L375.677 79.688L376.775 79.6767ZM381.653 79.6267L381.662 80.5626L381.626 80.563C381.612 80.3351 381.526 80.15 381.369 80.0076C381.211 79.8652 381.024 79.7951 380.808 79.7973C380.808 79.7973 380.766 79.7978 380.682 79.7986C380.598 79.7995 380.556 79.7999 380.556 79.7999L380.555 79.6379L381.653 79.6267ZM383.867 79.6039L383.868 79.7659C383.868 79.7659 383.826 79.7664 383.742 79.7672C383.67 79.768 383.634 79.7683 383.634 79.7683C383.406 79.7707 383.209 79.8447 383.043 79.9904C382.888 80.136 382.812 80.3228 382.814 80.5508L382.778 80.5512L382.769 79.6152L383.867 79.6039ZM388.764 79.5537L390.708 79.5337C391.2 79.5287 391.68 79.5778 392.149 79.681C392.618 79.7722 393.04 79.9298 393.414 80.154C393.788 80.3662 394.085 80.6632 394.305 81.0449C394.537 81.4146 394.656 81.8814 394.662 82.4453C394.666 82.8653 394.58 83.2862 394.405 83.708C394.241 84.1177 393.975 84.4745 393.606 84.7783C393.249 85.082 392.777 85.2848 392.19 85.3868C392.539 85.4913 392.871 85.6979 393.186 86.0067C393.513 86.3153 393.768 86.6067 393.951 86.8809C394 86.9764 394.086 87.1315 394.208 87.3462C394.33 87.549 394.483 87.7875 394.665 88.0616C394.86 88.3236 395.061 88.5976 395.268 88.8835C395.511 89.205 395.724 89.4548 395.906 89.6329C396.087 89.7991 396.274 89.9172 396.467 89.9872C396.66 90.0572 396.882 90.091 397.134 90.0884L397.136 90.2684L395.624 90.2839C394.976 90.2905 394.424 90.2482 393.967 90.1569C393.522 90.0654 393.13 89.8954 392.792 89.6469C392.465 89.3862 392.161 89.0353 391.881 88.5942C391.771 88.4393 391.655 88.2545 391.533 88.0397C391.411 87.813 391.288 87.5862 391.166 87.3595C391.044 87.1327 390.933 86.9118 390.835 86.6968C390.749 86.4817 390.687 86.3023 390.65 86.1587C390.49 85.7763 390.307 85.5022 390.101 85.3363C389.907 85.1583 389.726 85.0701 389.558 85.0718L389.557 84.9098C389.557 84.9098 389.599 84.9094 389.683 84.9085C389.767 84.9077 389.875 84.9066 390.007 84.9052C390.259 84.9026 390.504 84.8581 390.743 84.7717C390.994 84.6731 391.221 84.4967 391.422 84.2427C391.623 83.9766 391.769 83.5911 391.86 83.0861C391.883 83.0139 391.9 82.9117 391.911 82.7796C391.934 82.6473 391.938 82.4973 391.924 82.3294C391.896 81.8857 391.808 81.5326 391.662 81.2701C391.527 80.9954 391.357 80.7932 391.151 80.6633C390.946 80.5214 390.735 80.4275 390.518 80.3817C390.314 80.3238 390.133 80.2957 389.977 80.2973C389.749 80.2876 389.539 80.2898 389.347 80.3037C389.167 80.3056 389.029 80.301 388.933 80.29C388.921 80.2901 388.903 80.2303 388.877 80.1106C388.852 79.9788 388.827 79.8531 388.802 79.7333C388.776 79.6136 388.764 79.5537 388.764 79.5537ZM388.944 79.5518L389.055 90.3513L386.445 90.3781L386.334 79.5786L388.944 79.5518ZM386.487 89.2436L386.571 90.3768L385.275 90.3901L385.273 90.2101C385.285 90.2099 385.315 90.2096 385.363 90.2091C385.423 90.2085 385.465 90.2081 385.489 90.2079C385.753 90.2051 385.974 90.1129 386.152 89.931C386.342 89.7371 386.442 89.508 386.451 89.2439L386.487 89.2436ZM386.399 80.694L386.363 80.6944C386.348 80.4185 386.244 80.1976 386.05 80.0316C385.869 79.8534 385.652 79.7656 385.4 79.7682C385.364 79.7686 385.316 79.7691 385.256 79.7697C385.208 79.7702 385.178 79.7705 385.166 79.7706L385.164 79.5906L386.46 79.5773L386.399 80.694ZM389.007 89.2177L389.043 89.2173C389.046 89.5173 389.15 89.7503 389.356 89.9162C389.574 90.0819 389.803 90.1636 390.043 90.1611C390.043 90.1611 390.067 90.1609 390.115 90.1604C390.163 90.1599 390.199 90.1595 390.223 90.1593L390.224 90.3393L388.929 90.3526L389.007 89.2177ZM400.863 79.4295L400.974 90.229L398.382 90.2556L398.271 79.4561L400.863 79.4295ZM405.178 89.4658L405.599 90.1815L400.938 90.2293L400.93 89.5094L405.178 89.4658ZM404.515 84.4863L404.522 85.2063L400.886 85.2436L400.879 84.5236L404.515 84.4863ZM405.273 79.3843L405.28 80.1043L400.834 80.1499L400.827 79.4299L405.273 79.3843ZM406.303 86.8621L405.653 90.181L402.539 90.2129L403.09 89.4872C403.606 89.4819 404.061 89.3753 404.455 89.1672C404.861 88.947 405.206 88.6435 405.49 88.2565C405.773 87.8576 405.991 87.3934 406.141 86.8638L406.303 86.8621ZM404.522 85.1703L404.538 86.7542L404.358 86.7561L404.357 86.6121C404.353 86.2161 404.223 85.8874 403.969 85.626C403.726 85.3645 403.394 85.2299 402.974 85.2222L402.974 85.1862L404.522 85.1703ZM404.499 82.9384L404.515 84.5223L402.967 84.5382L402.967 84.5022C403.387 84.4859 403.715 84.3445 403.953 84.0781C404.202 83.7995 404.324 83.4622 404.32 83.0663L404.319 82.9403L404.499 82.9384ZM405.28 80.0683L405.299 81.9762L405.119 81.978L405.117 81.816C405.112 81.288 404.964 80.8755 404.673 80.5785C404.394 80.2814 403.99 80.1295 403.462 80.1229L403.462 80.0869L405.28 80.0683ZM405.27 79.1143L405.274 79.5463L403.383 79.4037C403.731 79.4001 404.096 79.3664 404.48 79.3024C404.863 79.2265 405.126 79.1638 405.27 79.1143ZM398.406 89.1213L398.508 90.2543L397.176 90.2679L397.174 90.088C397.174 90.088 397.21 90.0876 397.282 90.0868C397.354 90.0861 397.396 90.0857 397.408 90.0856C397.672 90.0828 397.893 89.9906 398.071 89.8087C398.261 89.6148 398.361 89.3857 398.37 89.1216L398.406 89.1213ZM398.319 80.5897L398.283 80.5901C398.268 80.3142 398.163 80.0873 397.97 79.9093C397.788 79.7311 397.565 79.6434 397.301 79.6461C397.289 79.6462 397.247 79.6467 397.175 79.6474C397.103 79.6481 397.067 79.6485 397.067 79.6485L397.065 79.4685L398.397 79.4548L398.319 80.5897ZM411.074 79.0908C411.314 79.0883 411.602 79.0973 411.938 79.1179C412.287 79.1383 412.629 79.1648 412.965 79.1974C413.301 79.2179 413.596 79.2509 413.848 79.2963C414.113 79.3296 414.293 79.3637 414.389 79.3988L414.178 81.597L414.016 81.5987C414.01 81.0467 413.814 80.6107 413.426 80.2907C413.039 79.9706 412.485 79.8143 411.766 79.8217C411.19 79.8276 410.723 79.9584 410.365 80.2141C410.02 80.4696 409.838 80.8075 409.818 81.2278C409.796 81.444 409.834 81.6416 409.932 81.8206C410.042 81.9875 410.187 82.136 410.369 82.2662C410.562 82.3962 410.773 82.526 411.003 82.6557L413.846 84.3726C414.329 84.6077 414.71 84.9518 414.991 85.4049C415.272 85.858 415.397 86.4088 415.368 87.0571C415.339 87.7295 415.147 88.3135 414.792 88.8091C414.449 89.3047 413.967 89.6876 413.346 89.958C412.736 90.2163 412.012 90.3497 411.172 90.3584C410.656 90.3636 410.175 90.3266 409.73 90.2471C409.286 90.1677 408.9 90.0576 408.575 89.917C408.261 89.7762 408.02 89.6167 407.85 89.4384C407.752 89.1994 407.707 88.9118 407.715 88.5757C407.724 88.2276 407.774 87.8851 407.867 87.5481C407.959 87.1991 408.076 86.9099 408.218 86.6805L408.362 86.679C408.331 87.2193 408.432 87.7163 408.665 88.17C408.91 88.6235 409.261 88.9859 409.72 89.2572C410.179 89.5165 410.726 89.6429 411.362 89.6364C412.058 89.6292 412.578 89.4619 412.923 89.1343C413.268 88.8068 413.438 88.427 413.433 87.995C413.43 87.671 413.319 87.3842 413.101 87.1344C412.894 86.8725 412.549 86.618 412.067 86.371L409.494 84.7773C408.891 84.4714 408.449 84.062 408.168 83.5488C407.898 83.0356 407.797 82.4726 407.862 81.8599C407.916 81.2833 408.079 80.7896 408.351 80.3788C408.635 79.9678 409.01 79.652 409.475 79.4312C409.941 79.2104 410.474 79.0969 411.074 79.0908ZM414.387 79.2188L414.373 79.5429L412.447 79.5627L412.444 79.2387L414.387 79.2188Z" fill="black"/>
</g>
<defs>
<filter id="filter0_d_60_6" x="9.34717" y="18.8974" width="412.748" height="57.6466" filterUnits="userSpaceOnUse" color-interpolation-filters="sRGB">
<feFlood flood-opacity="0" result="BackgroundImageFix"/>
<feColorMatrix in="SourceAlpha" type="matrix" values="0 0 0 0 0 0 0 0 0 0 0 0 0 0 0 0 0 0 127 0" result="hardAlpha"/>
<feOffset dx="2" dy="4"/>
<feGaussianBlur stdDeviation="1"/>
<feComposite in2="hardAlpha" operator="out"/>
<feColorMatrix type="matrix" values="0 0 0 0 0 0 0 0 0 0 0 0 0 0 0 0 0 0 0.25 0"/>
<feBlend mode="normal" in2="BackgroundImageFix" result="effect1_dropShadow_60_6"/>
<feBlend mode="normal" in="SourceGraphic" in2="effect1_dropShadow_60_6" result="shape"/>
</filter>
<clipPath id="clip0_60_6">
<rect width="428" height="112" fill="white"/>
</clipPath>
</defs>
</svg>
